<?xml version="1.0" ?>
<svg xmlns="http://www.w3.org/2000/svg" width="1275" height="1275">
  <path d="M0,0 0,1274 1274,1274 1274,0Z" fill="none" stroke="red" stroke-width="1"/>
  <path d="M19,20 20,19 1254,19 1255,20 1255,1254 1254,1255 20,1255 19,1254Z" fill="none" stroke="red" stroke-width="1"/>
  <path d="M658,500 657,501 655,501 654,502 652,502 651,503 650,503 649,504 648,504 647,505 646,505 644,507 643,507 639,511 638,511 637,512 637,513 634,516 634,517 632,519 632,520 631,521 631,523 630,524 630,527 629,528 629,529 628,530 628,532 627,533 626,533 624,531 624,530 623,529 623,527 622,526 622,525 621,524 621,522 620,521 620,519 619,518 619,517 618,516 618,514 617,513 617,512 616,511 616,509 611,514 611,516 610,517 610,518 609,519 609,524 608,525 608,528 609,529 609,532 606,535 605,535 604,534 602,534 601,533 600,533 599,532 597,532 596,531 594,531 593,530 592,530 591,529 589,529 588,528 586,528 586,529 587,530 587,531 589,533 589,534 596,541 597,541 598,542 598,544 599,545 599,548 598,549 597,549 596,550 595,550 594,551 593,551 592,552 591,552 590,553 589,553 587,555 586,555 585,556 584,556 582,558 581,558 580,559 579,559 577,561 576,561 574,563 573,563 570,566 569,566 565,570 564,570 550,584 550,585 547,588 547,589 544,592 544,593 543,594 543,595 541,597 541,598 540,599 540,600 539,601 539,602 538,603 538,604 537,605 537,606 536,607 536,609 535,610 535,612 534,613 534,616 533,617 533,621 532,622 532,626 531,627 531,628 530,629 528,629 527,630 524,630 523,631 521,631 520,632 518,632 517,633 516,633 515,634 514,634 513,635 511,635 510,636 509,636 508,637 507,637 506,638 504,638 503,639 501,639 500,640 497,640 496,641 491,641 490,642 486,642 485,641 480,641 479,640 477,640 476,639 475,639 474,638 473,638 472,637 471,637 469,635 468,635 466,633 465,633 463,631 462,631 460,629 459,629 457,627 456,627 455,626 454,626 453,625 452,625 451,624 449,624 448,623 447,623 446,622 435,622 434,623 432,623 431,624 429,624 428,625 428,627 427,628 427,631 426,632 426,646 427,647 427,650 428,651 428,653 429,654 429,655 430,656 430,657 431,658 431,659 432,660 432,661 434,663 434,664 438,668 438,669 442,673 443,673 446,676 447,676 449,678 450,678 452,680 453,680 457,684 458,684 461,687 462,687 464,689 465,689 467,691 468,691 470,693 471,693 472,694 473,694 474,695 475,695 476,696 477,696 478,697 480,697 481,698 482,698 483,699 485,699 486,700 488,700 489,701 491,701 492,702 495,702 496,703 500,703 501,704 506,704 507,705 511,705 512,706 514,706 515,707 522,707 523,708 522,709 524,709 525,710 525,713 523,715 523,716 518,721 517,721 515,723 514,723 511,726 510,726 508,728 507,728 505,730 504,730 501,733 500,733 498,735 497,735 493,739 492,739 487,744 486,744 482,748 481,748 477,752 476,752 475,753 475,755 474,756 473,756 472,757 471,757 469,759 468,759 468,760 467,761 467,762 466,763 466,764 465,765 465,766 462,769 462,770 461,771 461,772 460,773 460,778 461,779 461,780 462,781 463,781 464,782 465,782 466,783 472,783 473,782 476,782 477,781 479,781 480,780 482,780 483,779 484,779 485,778 486,778 487,777 488,777 489,776 490,776 491,775 492,775 493,774 494,774 496,772 497,772 498,771 499,771 500,770 501,770 503,768 504,768 505,767 506,767 507,766 508,766 510,764 511,764 512,763 513,763 514,762 515,762 517,760 518,760 519,759 520,759 521,758 522,758 523,757 524,757 525,756 526,756 527,755 528,755 529,754 530,754 531,753 532,753 533,752 534,752 535,751 536,751 538,749 539,749 541,747 542,747 544,745 545,745 546,744 547,744 548,743 550,743 551,742 553,742 554,741 555,741 556,740 558,740 560,738 561,738 565,742 566,742 574,750 575,750 581,756 582,756 583,757 583,761 584,762 584,766 585,767 585,771 586,772 586,775 587,776 587,780 588,781 587,782 587,785 588,786 588,812 587,813 587,819 586,820 586,824 585,825 585,829 584,830 584,834 583,835 583,838 582,839 582,842 581,843 581,845 580,846 580,849 579,850 579,853 578,854 578,856 577,857 577,859 576,860 576,862 575,863 575,864 574,865 573,865 573,866 572,867 572,869 571,870 571,872 570,873 570,874 569,875 569,877 568,878 568,879 567,880 567,881 566,882 566,883 565,884 565,885 563,887 563,888 562,889 562,890 561,891 561,892 559,894 559,895 557,897 557,898 555,900 555,901 553,903 553,904 550,907 550,908 547,911 547,912 544,915 544,916 541,919 541,920 538,923 538,924 535,927 535,928 532,931 532,932 529,935 529,936 527,938 527,939 524,942 524,943 523,944 523,945 521,947 521,948 520,949 520,950 519,951 519,952 518,953 518,954 517,955 517,956 513,960 513,961 512,962 512,963 510,965 510,966 509,967 509,968 508,969 508,970 506,972 506,973 505,974 505,975 504,976 504,977 503,978 503,979 502,980 502,981 501,982 501,983 500,984 500,985 499,986 499,988 498,989 498,990 497,991 497,992 496,993 496,995 495,996 495,998 494,999 494,1001 493,1002 493,1004 492,1005 492,1007 491,1008 491,1011 490,1012 490,1016 489,1017 489,1023 488,1024 488,1042 490,1044 490,1049 491,1050 491,1052 492,1053 492,1055 493,1056 493,1057 494,1058 494,1059 495,1060 495,1061 497,1063 497,1064 506,1073 507,1073 509,1075 510,1075 512,1077 513,1077 514,1078 515,1078 516,1079 517,1079 518,1080 519,1080 520,1081 521,1081 522,1082 523,1082 524,1083 526,1083 527,1084 529,1084 530,1085 532,1085 533,1086 535,1086 536,1087 539,1087 540,1088 543,1088 544,1089 547,1089 548,1090 552,1090 553,1091 557,1091 558,1092 563,1092 564,1093 569,1093 570,1094 575,1094 576,1095 582,1095 583,1096 590,1096 591,1097 594,1097 595,1098 595,1099 608,1099 609,1100 609,1099 610,1098 611,1099 622,1099 623,1100 652,1100 653,1101 688,1101 689,1100 691,1100 692,1099 698,1099 699,1100 710,1100 711,1099 718,1099 719,1098 723,1098 725,1096 732,1096 733,1095 734,1095 735,1096 738,1096 738,1095 739,1094 741,1094 742,1095 744,1095 743,1094 744,1093 747,1093 748,1092 749,1093 755,1093 754,1092 755,1091 762,1091 761,1091 760,1090 761,1089 765,1089 766,1088 770,1088 772,1086 775,1086 774,1086 773,1085 774,1084 777,1084 778,1083 780,1083 781,1082 783,1082 784,1081 785,1081 786,1080 787,1080 789,1078 790,1078 792,1076 793,1076 798,1071 798,1070 800,1068 800,1067 801,1066 801,1065 803,1063 804,1063 804,1061 805,1060 805,1059 808,1056 808,1055 815,1048 815,1047 816,1046 816,1045 818,1043 818,1042 819,1041 819,1040 820,1039 820,1038 821,1037 821,1036 822,1035 822,1034 823,1033 823,1032 824,1031 824,1030 825,1029 825,1028 826,1027 826,1025 827,1024 827,1023 828,1022 828,1021 829,1020 829,1018 830,1017 830,1016 831,1015 831,1013 832,1012 832,1010 833,1009 833,1008 834,1007 834,1004 835,1003 835,1001 836,1000 836,997 837,996 837,993 838,992 838,988 839,987 839,981 840,980 840,957 839,956 839,951 838,950 838,947 837,946 837,943 836,942 836,940 835,939 835,938 834,937 829,937 825,941 825,942 819,948 819,949 817,951 816,951 815,952 813,952 812,953 811,953 809,955 808,955 807,956 806,956 805,957 804,957 803,958 802,958 801,959 800,959 799,960 796,960 795,961 793,961 792,962 788,962 787,963 769,963 768,962 765,962 764,961 762,961 761,960 760,960 759,959 758,959 757,958 756,958 755,957 754,957 753,956 752,956 751,955 750,955 749,954 748,954 747,953 746,953 745,952 744,952 743,951 741,951 739,949 739,948 738,947 737,947 736,946 735,946 734,945 733,945 732,944 730,944 729,943 728,943 727,942 726,942 725,941 724,941 723,940 722,940 721,939 720,939 719,938 718,938 717,937 716,937 715,936 708,936 707,935 708,934 709,934 708,933 706,933 705,932 703,932 702,931 699,931 698,930 695,930 694,929 689,929 688,928 682,928 681,927 675,927 674,926 668,926 667,925 659,925 658,924 647,924 646,925 640,925 638,923 638,921 637,920 637,917 636,916 636,913 635,912 635,908 634,907 634,903 633,902 633,897 632,896 632,890 631,889 631,878 630,877 630,867 631,866 631,854 630,853 630,848 631,847 631,843 632,842 632,838 633,837 633,833 634,832 634,828 635,827 635,824 636,823 636,819 637,818 637,814 638,813 638,810 639,809 639,805 640,804 640,801 642,799 643,799 643,798 644,797 644,795 645,794 645,793 646,792 646,790 647,789 647,788 648,787 648,786 649,785 649,784 650,783 650,782 651,781 651,780 653,778 653,777 655,775 655,774 656,773 656,772 660,768 660,767 663,764 663,762 667,758 668,758 669,757 670,757 671,756 672,756 673,755 674,755 675,754 676,754 677,753 678,753 679,752 680,752 682,750 683,750 685,748 686,748 693,741 694,741 696,739 697,739 708,728 708,727 711,724 711,723 713,721 713,720 715,718 715,717 716,716 716,715 717,714 717,713 719,711 719,710 720,709 720,708 721,707 721,705 722,704 722,703 723,702 723,701 724,700 724,698 725,697 725,696 726,695 726,693 727,692 727,690 728,689 728,686 729,685 729,682 730,681 730,678 731,677 731,672 732,671 732,660 733,659 733,652 732,651 732,642 731,641 731,638 730,637 730,634 729,633 729,632 728,631 728,624 727,623 727,620 725,618 725,616 724,615 724,611 723,610 723,608 722,607 722,605 721,604 721,603 720,602 720,601 719,600 719,599 718,598 718,597 717,596 717,595 715,593 715,592 714,591 714,590 712,588 712,587 709,584 709,583 705,579 705,578 695,568 694,568 690,564 689,564 686,561 685,561 683,559 682,559 681,558 680,558 679,557 678,557 675,554 675,551 676,550 676,548 677,547 677,546 681,542 682,542 682,540 681,539 681,538 680,537 679,538 676,538 675,539 673,539 672,540 670,540 669,541 668,540 665,540 664,539 664,531 665,530 665,528 666,527 666,526 670,522 671,522 671,521 668,521 667,522 661,522 661,523 660,524 659,523 658,524 658,525 654,529 654,530 652,532 651,531 651,530 650,529 650,527 649,526 649,524 648,523 648,522 649,521 649,519 650,518 650,516 651,515 651,513 652,512 653,513 653,511 654,510 655,510 655,509 656,508 656,507 657,506 657,505 658,504 658,503 659,502 659,501 660,500Z" fill="none" stroke="red" stroke-width="1"/>
  <path d="M736,1090 737,1089 738,1090 737,1091Z" fill="none" stroke="black" stroke-width="1"/>
  <path d="M663,1066 664,1065 665,1066 664,1067Z" fill="none" stroke="black" stroke-width="1"/>
  <path d="M619,1007 620,1006 623,1006 624,1007 623,1008 620,1008Z" fill="none" stroke="red" stroke-width="1"/>
  <path d="M764,999 765,998 766,999 765,1000Z" fill="none" stroke="black" stroke-width="1"/>
  <path d="M764,993 765,992 766,993 766,994 765,995 764,994Z" fill="none" stroke="red" stroke-width="1"/>
  <path d="M764,990 765,991 765,992 764,993 763,993 762,992Z" fill="none" stroke="red" stroke-width="1"/>
  <path d="M692,990 693,989 694,990 693,991Z" fill="none" stroke="black" stroke-width="1"/>
  <path d="M763,989 764,988 765,989 764,990Z" fill="none" stroke="black" stroke-width="1"/>
  <path d="M709,988 710,987 711,988 710,989Z" fill="none" stroke="black" stroke-width="1"/>
  <path d="M692,983 693,982 694,983 693,984Z" fill="none" stroke="black" stroke-width="1"/>
  <path d="M746,981 747,981 748,982 747,983 747,984 745,986 744,985 743,986 742,986 741,985 743,983 744,983Z" fill="none" stroke="red" stroke-width="1"/>
  <path d="M763,981 764,980 765,981 765,986 764,987 763,986Z" fill="none" stroke="red" stroke-width="1"/>
  <path d="M747,981 748,980 749,981 748,982Z" fill="none" stroke="black" stroke-width="1"/>
  <path d="M748,980 749,979 750,980 749,981Z" fill="none" stroke="black" stroke-width="1"/>
  <path d="M737,978 738,977 739,978 738,979Z" fill="none" stroke="black" stroke-width="1"/>
  <path d="M750,976 751,975 752,976 751,977Z" fill="none" stroke="black" stroke-width="1"/>
  <path d="M752,975 753,974 754,975 753,976Z" fill="none" stroke="black" stroke-width="1"/>
  <path d="M681,975 682,974 683,975 683,976 682,977 681,976Z" fill="none" stroke="red" stroke-width="1"/>
  <path d="M617,975 618,974 622,974 623,975 622,976 619,976 618,977 617,976Z" fill="none" stroke="red" stroke-width="1"/>
  <path d="M674,970 675,969 677,969 678,970 677,971 675,971Z" fill="none" stroke="red" stroke-width="1"/>
  <path d="M546,970 547,969 548,970 548,971 547,972 546,971Z" fill="none" stroke="red" stroke-width="1"/>
  <path d="M547,969 548,968 549,969 548,970Z" fill="none" stroke="black" stroke-width="1"/>
  <path d="M565,933 566,932 567,932 568,933 568,934 567,935Z" fill="none" stroke="red" stroke-width="1"/>
  <path d="M563,932 564,931 565,932 564,933Z" fill="none" stroke="red" stroke-width="1"/>
  <path d="M569,876 570,875 571,876 570,877Z" fill="none" stroke="black" stroke-width="1"/>
  <path d="M570,874 571,873 572,874 571,875Z" fill="none" stroke="black" stroke-width="1"/>
  <path d="M571,871 572,870 573,871 572,872Z" fill="none" stroke="black" stroke-width="1"/>
  <path d="M472,762 473,761 474,761 475,762 474,763 473,763Z" fill="none" stroke="red" stroke-width="1"/>
  <path d="M474,761 475,760 476,761 475,762Z" fill="none" stroke="black" stroke-width="1"/>
  <path d="M530,707 531,706 534,706 535,707 534,708 531,708Z" fill="none" stroke="red" stroke-width="1"/>
  <path d="M710,695 711,694 712,695 712,696 711,697 710,696Z" fill="none" stroke="red" stroke-width="1"/>
  <path d="M611,694 612,693 613,694 612,695Z" fill="none" stroke="black" stroke-width="1"/>
  <path d="M652,688 653,687 654,688 653,689Z" fill="none" stroke="black" stroke-width="1"/>
  <path d="M678,683 679,682 681,684 680,685 679,685 678,684Z" fill="none" stroke="red" stroke-width="1"/>
  <path d="M475,681 476,680 477,681 476,682Z" fill="none" stroke="black" stroke-width="1"/>
  <path d="M609,677 610,676 611,677 610,678Z" fill="none" stroke="black" stroke-width="1"/>
  <path d="M608,675 609,674 610,675 610,676 609,677 608,676Z" fill="none" stroke="red" stroke-width="1"/>
  <path d="M469,674 470,673 471,674 470,675Z" fill="none" stroke="black" stroke-width="1"/>
  <path d="M694,672 695,671 697,673 696,674 696,675 695,676 694,675Z" fill="none" stroke="red" stroke-width="1"/>
  <path d="M599,613 600,612 601,613 600,614Z" fill="none" stroke="black" stroke-width="1"/>
  <path d="M624,605 625,604 626,605 625,606Z" fill="none" stroke="black" stroke-width="1"/>
  <path d="M568,599 569,600 569,602 568,603 567,603 566,604 565,604 564,603Z" fill="none" stroke="black" stroke-width="1"/>
  <path d="M648,538 649,537 650,538 649,539Z" fill="none" stroke="black" stroke-width="1"/>
  <path d="M649,536 650,535 651,536 650,537Z" fill="none" stroke="black" stroke-width="1"/>
  <path d="M650,535 651,534 652,535 651,536Z" fill="none" stroke="black" stroke-width="1"/>
  <path d="M607,535 608,534 609,535 608,536Z" fill="none" stroke="black" stroke-width="1"/>
  <path d="M651,534 652,533 653,534 652,535Z" fill="none" stroke="black" stroke-width="1"/>
  <path d="M762,1002 757,1007 756,1007 753,1010 752,1010 749,1013 748,1013 747,1014 746,1014 744,1016 743,1016 742,1017 741,1017 740,1018 738,1018 737,1019 736,1019 735,1020 734,1020 733,1021 730,1021 729,1022 728,1022 727,1023 724,1023 723,1024 722,1024 720,1026 721,1027 722,1027 721,1026 721,1025 722,1024 723,1024 724,1023 727,1023 728,1022 730,1022 731,1021 733,1021 734,1020 735,1020 736,1019 738,1019 739,1018 740,1018 741,1017 742,1017 743,1016 744,1016 745,1015 746,1015 747,1014 748,1014 750,1012 751,1012 753,1010 754,1010" fill="none" stroke="black" stroke-width="0.5"/>
  <path d="M721,1000 721,1002 725,1002 726,1003 731,1003 732,1004 734,1004 735,1005 736,1004 732,1004 731,1003 726,1003 725,1002 726,1001 730,1001 726,1001 725,1000" fill="none" stroke="black" stroke-width="0.5"/>
  <path d="M588,998 588,1005 589,1006 589,1011 590,1012 590,1014 591,1015 591,1017 592,1018 592,1020 593,1021 593,1023 594,1024 594,1025 595,1026 595,1027 596,1028 596,1029 597,1030 597,1031 598,1032 598,1033 600,1035 600,1036 602,1038 602,1039 614,1051 615,1051 618,1054 619,1054 621,1056 622,1056 624,1058 625,1058 626,1059 627,1059 628,1060 629,1060 631,1062 633,1062 634,1063 635,1063 636,1064 637,1064 638,1065 640,1065 641,1066 643,1066 644,1067 647,1067 648,1068 651,1068 652,1069 656,1069 657,1070 664,1070 665,1071 688,1071 689,1070 696,1070 697,1069 701,1069 702,1068 705,1068 706,1067 709,1067 710,1066 713,1066 714,1065 716,1065 717,1064 719,1064 720,1063 722,1063 723,1062 724,1062 725,1061 726,1061 727,1060 729,1060 730,1059 731,1059 732,1058 733,1058 735,1056 736,1056 737,1055 738,1055 741,1052 742,1052 752,1042 752,1041 754,1039 754,1038 756,1036 756,1035 757,1034 757,1033 758,1032 758,1031 759,1030 759,1029 759,1030 758,1031 758,1032 756,1034 756,1035 755,1036 755,1037 753,1039 753,1040 749,1044 749,1045 747,1047 746,1047 741,1052 740,1052 737,1055 736,1055 734,1057 733,1057 732,1058 731,1058 730,1059 729,1059 728,1060 727,1060 726,1061 725,1061 724,1062 723,1062 722,1063 720,1063 719,1064 717,1064 716,1065 714,1065 713,1066 710,1066 709,1067 706,1067 705,1068 702,1068 701,1069 697,1069 696,1070 689,1070 688,1071 665,1071 664,1070 657,1070 656,1069 652,1069 651,1068 648,1068 647,1067 645,1067 644,1066 642,1066 641,1065 639,1065 638,1064 637,1064 636,1063 635,1063 634,1062 632,1062 631,1061 630,1061 629,1060 628,1060 626,1058 625,1058 624,1057 623,1057 621,1055 620,1055 617,1052 616,1052 612,1048 611,1048 605,1042 605,1041 602,1038 602,1037 599,1034 599,1033 598,1032 598,1031 596,1029 596,1028 595,1027 595,1026 594,1025 594,1024 593,1023 593,1021 592,1020 592,1018 591,1017 591,1015 590,1014 590,1012 589,1011 589,1006 588,1005" fill="none" stroke="black" stroke-width="0.5"/>
  <path d="M765,992 764,993 762,993 756,999 755,999 753,1001 752,1001 751,1002 749,1002 748,1003 745,1003 744,1004 742,1004 741,1003 739,1003 741,1003 742,1004 744,1004 745,1003 748,1003 749,1002 752,1002 753,1001 754,1001 756,999 757,999 763,993 766,996 766,997 765,998 766,998 766,996 767,995 768,996 768,997 769,998 768,999 768,1002 767,1003 767,1005 766,1006 766,1008 765,1009 765,1011 764,1012 764,1015 763,1016 763,1019 762,1020 761,1019 761,1017 759,1017 759,1018 753,1024 752,1024 750,1026 749,1026 748,1027 747,1027 746,1028 745,1028 744,1029 743,1029 742,1030 739,1030 738,1031 732,1031 731,1032 720,1032 719,1031 717,1031 716,1030 717,1029 731,1029 732,1028 735,1028 736,1027 738,1027 739,1026 741,1026 742,1025 744,1025 746,1023 748,1023 749,1022 750,1022 752,1020 753,1020 761,1012 761,1011 763,1009 763,1007 764,1006 764,1000 764,1006 763,1007 763,1008 762,1009 762,1010 760,1012 760,1013 756,1017 755,1017 752,1020 751,1020 749,1022 748,1022 747,1023 746,1023 745,1024 744,1024 743,1025 742,1025 741,1026 739,1026 738,1027 736,1027 735,1028 732,1028 731,1029 716,1029 716,1031 719,1031 720,1032 731,1032 732,1031 738,1031 739,1030 742,1030 743,1029 744,1029 745,1028 747,1028 748,1027 749,1027 750,1026 751,1026 754,1023 755,1023 758,1020 758,1019 760,1017 761,1018 761,1019 760,1020 760,1021 759,1022 759,1023 758,1024 758,1027 756,1029 756,1030 755,1031 755,1032 752,1035 752,1036 742,1046 741,1046 738,1049 737,1049 734,1052 733,1052 732,1053 731,1053 729,1055 728,1055 727,1056 726,1056 725,1057 724,1057 723,1058 721,1058 720,1059 719,1059 718,1060 716,1060 715,1061 713,1061 712,1062 710,1062 709,1063 706,1063 705,1064 700,1064 699,1065 695,1065 694,1066 687,1066 686,1067 683,1067 682,1066 681,1067 667,1067 666,1066 665,1066 666,1066 667,1067 681,1067 682,1066 683,1067 686,1067 687,1066 694,1066 695,1065 699,1065 700,1064 705,1064 706,1063 709,1063 710,1062 712,1062 713,1061 715,1061 716,1060 719,1060 721,1058 724,1058 725,1057 726,1057 727,1056 728,1056 729,1055 730,1055 732,1053 733,1053 734,1052 735,1052 738,1049 739,1049 742,1046 743,1046 752,1037 752,1036 754,1034 754,1033 756,1031 756,1030 757,1029 757,1028 758,1027 758,1024 759,1023 759,1022 760,1021 760,1020 761,1019 762,1020 762,1022 761,1023 761,1025 760,1026 760,1027 760,1026 761,1025 761,1023 762,1022 762,1020 763,1019 763,1016 764,1015 764,1013 765,1012 765,1009 766,1008 766,1006 767,1005 767,1004 768,1003 768,999 769,998 768,997 768,995 766,993 766,992" fill="none" stroke="black" stroke-width="0.5"/>
  <path d="M740,986 741,985 742,986 743,986 744,987 741,990 738,990 737,991 732,991 731,992 715,992 714,991 715,990 724,990 726,988 727,988 728,989 730,989 731,988 735,988 736,987 738,987 739,986" fill="none" stroke="black" stroke-width="0.5"/>
  <path d="M767,982 767,984 768,985 768,986 769,987 769,989 770,990 770,995 770,990 769,989 769,986 768,985 768,984 767,983" fill="none" stroke="black" stroke-width="0.5"/>
  <path d="M758,982 758,983 757,984 757,985 752,990 751,990 750,991 749,991 747,993 746,993 745,994 744,994 743,995 741,995 740,996 738,996 737,997 735,997 734,998 731,998 730,999 729,999 730,999 731,998 734,998 735,997 737,997 738,996 740,996 741,995 743,995 744,994 745,994 746,993 748,993 750,991 751,991 752,990 753,990 757,986 757,985 758,984" fill="none" stroke="black" stroke-width="0.5"/>
  <path d="M746,978 745,979 744,979 743,980 741,980 740,981 739,981 738,982 737,982 736,983 733,983 732,984 728,984 727,985 724,985 723,986 719,986 718,987 717,987 718,987 719,986 723,986 724,985 727,985 728,984 732,984 733,983 736,983 737,982 738,982 739,981 741,981 742,980 743,980 744,979 745,979" fill="none" stroke="black" stroke-width="0.5"/>
  <path d="M589,977 589,995 590,996 590,1001 591,1002 591,1007 592,1008 592,1011 593,1012 593,1015 594,1016 594,1018 595,1019 595,1020 596,1021 596,1023 597,1024 597,1025 598,1026 598,1027 599,1028 599,1029 600,1030 600,1031 602,1033 602,1034 605,1037 605,1038 614,1047 615,1047 619,1051 620,1051 621,1052 622,1052 624,1054 625,1054 626,1055 627,1055 628,1056 629,1056 630,1057 631,1057 632,1058 633,1058 634,1059 636,1059 637,1060 638,1060 639,1061 642,1061 643,1062 645,1062 646,1063 648,1063 649,1064 652,1064 653,1065 657,1065 658,1066 662,1066 663,1065 662,1066 658,1066 657,1065 653,1065 652,1064 649,1064 648,1063 646,1063 645,1062 643,1062 642,1061 639,1061 637,1059 634,1059 633,1058 632,1058 631,1057 630,1057 629,1056 628,1056 626,1054 625,1054 623,1052 622,1052 621,1051 620,1051 616,1047 615,1047 605,1037 605,1036 602,1033 602,1032 600,1030 600,1029 599,1028 599,1027 597,1025 597,1024 596,1023 596,1021 595,1020 595,1019 594,1018 594,1016 593,1015 593,1012 592,1011 592,1008 591,1007 591,1002 590,1001 590,996 589,995" fill="none" stroke="black" stroke-width="0.5"/>
  <path d="M759,974 756,977 756,978 750,984 749,984 747,986 746,986 745,987 744,987 743,986 742,986 741,985 742,984 740,986 739,986 738,987 736,987 735,988 731,988 730,989 728,989 727,988 726,988 725,989 724,989 723,990 715,990 714,991 712,991 711,990 712,989 713,989 712,989 710,987 706,987 706,989 709,989 711,991 714,991 715,992 731,992 732,991 737,991 738,990 741,990 742,989 743,989 745,987 746,987 747,986 748,986 750,984 751,984 756,979 756,978 759,975 760,976 760,980 761,981 761,985 760,986 760,988 759,989 759,990 753,996 752,996 751,997 750,997 749,998 748,998 747,999 746,999 745,1000 742,1000 741,1001 733,1001 741,1001 742,1000 745,1000 746,999 747,999 748,998 750,998 751,997 752,997 753,996 754,996 758,992 758,991 760,989 760,986 761,985 761,981 760,980 760,975" fill="none" stroke="black" stroke-width="0.5"/>
  <path d="M757,970 752,975 750,975 750,977 751,978 750,979 749,979 747,981 749,979 751,979 753,977 753,976 752,975 753,974 754,974 758,970 762,974 762,977 763,978 763,979 764,980 763,981 763,985 763,981 764,980 765,981 765,986 763,988 764,988 765,989 765,990 765,989 764,988 764,987 765,986 765,981 764,980 764,979 762,977 762,973 759,970" fill="none" stroke="black" stroke-width="0.5"/>
  <path d="M830,939 830,943 829,944 829,950 828,951 828,955 827,956 827,959 826,960 826,962 825,963 825,965 824,966 824,968 823,969 823,971 822,972 822,973 821,974 821,976 820,977 820,978 819,979 819,980 818,981 818,982 817,983 817,984 816,985 816,986 815,987 815,988 814,989 814,990 812,992 812,993 810,995 810,996 809,997 809,998 807,1000 807,1001 805,1003 805,1004 802,1007 802,1008 798,1012 798,1013 794,1017 794,1018 780,1032 779,1032 775,1036 774,1036 773,1037 772,1037 770,1039 769,1039 768,1040 767,1040 765,1042 762,1042 761,1043 760,1043 759,1044 758,1044 757,1043 757,1042 758,1041 758,1040 759,1039 759,1038 760,1037 760,1035 761,1034 761,1033 762,1032 762,1031 763,1030 763,1028 764,1027 764,1024 765,1023 765,1020 766,1019 766,1016 767,1015 767,1012 767,1015 766,1016 766,1019 765,1020 765,1023 764,1024 764,1027 763,1028 763,1030 762,1031 762,1032 761,1033 761,1034 760,1035 760,1036 759,1037 759,1038 758,1039 758,1040 757,1041 757,1042 755,1044 755,1045 753,1047 753,1048 750,1051 750,1052 742,1060 741,1060 737,1064 736,1064 734,1066 733,1066 731,1068 730,1068 728,1070 727,1070 726,1071 724,1071 723,1072 720,1072 719,1073 717,1073 716,1074 714,1074 713,1075 710,1075 709,1076 707,1076 706,1077 702,1077 701,1078 697,1078 696,1079 692,1079 691,1080 665,1080 664,1079 659,1079 658,1078 654,1078 653,1077 650,1077 649,1076 647,1076 646,1075 644,1075 643,1074 642,1074 641,1073 639,1073 638,1072 637,1072 636,1071 635,1071 634,1070 633,1070 632,1069 631,1069 630,1068 629,1068 628,1067 627,1067 625,1065 624,1065 622,1063 621,1063 619,1061 618,1061 611,1054 610,1054 609,1053 609,1052 603,1046 603,1045 601,1043 601,1042 599,1040 599,1039 598,1038 593,1038 591,1036 591,1034 590,1033 590,1031 589,1030 589,1029 588,1028 588,1023 587,1022 587,1017 586,1016 586,1006 585,1005 585,997 585,1005 586,1006 586,1016 587,1017 587,1022 588,1023 588,1028 589,1029 589,1030 590,1031 590,1033 591,1034 591,1036 592,1037 592,1038 593,1039 592,1040 592,1041 591,1042 591,1044 590,1045 590,1046 589,1047 589,1048 588,1049 588,1050 587,1051 587,1053 585,1055 583,1055 582,1056 581,1056 580,1057 579,1057 577,1059 576,1059 575,1060 574,1060 573,1061 571,1061 570,1062 568,1062 567,1063 564,1063 563,1064 558,1064 557,1065 536,1065 535,1064 531,1064 530,1063 527,1063 526,1062 524,1062 523,1061 522,1061 521,1060 520,1060 519,1059 518,1059 517,1058 515,1058 513,1056 512,1056 510,1054 509,1054 507,1052 506,1052 502,1048 501,1048 491,1038 490,1038 495,1043 496,1043 503,1050 504,1050 508,1054 509,1054 510,1055 511,1055 513,1057 514,1057 515,1058 516,1058 517,1059 518,1059 519,1060 520,1060 521,1061 523,1061 524,1062 526,1062 527,1063 530,1063 531,1064 535,1064 536,1065 557,1065 558,1064 563,1064 564,1063 567,1063 568,1062 570,1062 571,1061 573,1061 574,1060 575,1060 576,1059 577,1059 578,1058 579,1058 580,1057 581,1057 582,1056 583,1056 584,1055 585,1055 586,1054 587,1054 587,1052 588,1051 588,1050 589,1049 589,1048 590,1047 590,1046 591,1045 591,1042 592,1041 592,1040 594,1038 597,1038 599,1040 599,1041 601,1043 601,1044 604,1047 604,1048 615,1059 616,1059 619,1062 620,1062 623,1065 624,1065 625,1066 626,1066 628,1068 629,1068 630,1069 631,1069 632,1070 633,1070 634,1071 635,1071 636,1072 637,1072 638,1073 640,1073 641,1074 643,1074 644,1075 646,1075 647,1076 649,1076 650,1077 653,1077 654,1078 658,1078 659,1079 664,1079 665,1080 691,1080 692,1079 696,1079 697,1078 701,1078 702,1077 706,1077 707,1076 709,1076 710,1075 713,1075 714,1074 716,1074 717,1073 719,1073 720,1072 723,1072 724,1071 726,1071 727,1070 728,1070 729,1069 730,1069 731,1068 732,1068 734,1066 735,1066 737,1064 738,1064 742,1060 743,1060 750,1053 750,1052 753,1049 753,1048 756,1045 757,1045 758,1044 759,1044 760,1043 762,1043 763,1042 765,1042 766,1041 767,1041 768,1040 769,1040 770,1039 771,1039 773,1037 774,1037 775,1036 776,1036 780,1032 781,1032 794,1019 794,1018 798,1014 798,1013 802,1009 802,1008 805,1005 805,1004 807,1002 807,1001 809,999 809,998 810,997 810,996 812,994 812,993 814,991 814,990 815,989 815,988 816,987 816,986 817,985 817,983 818,982 818,981 819,980 819,979 821,977 821,974 822,973 822,972 823,971 823,969 824,968 824,966 825,965 825,963 826,962 826,960 827,959 827,956 828,955 828,951 829,950 829,944 830,943" fill="none" stroke="black" stroke-width="0.5"/>
  <path d="M637,801 634,804 633,804 632,805 631,805 629,807 628,807 627,808 626,808 625,809 624,809 623,810 621,810 620,811 618,811 617,812 614,812 613,813 606,813 605,812 601,812 600,811 599,811 598,810 597,810 596,809 595,809 594,808 593,808 592,807 591,807 590,806 590,807 591,807 592,808 593,808 594,809 595,809 596,810 598,810 599,811 600,811 601,812 605,812 606,813 613,813 614,812 617,812 618,811 620,811 621,810 623,810 624,809 625,809 626,808 627,808 628,807 630,807 632,805 633,805 634,804 635,804 638,801" fill="none" stroke="black" stroke-width="0.5"/>
  <path d="M576,751 580,755 585,755 586,756 585,757 583,757 585,757 586,758 588,758 589,759 591,759 592,760 594,760 595,761 597,761 598,762 600,762 601,763 603,763 604,764 606,764 607,765 611,765 612,766 615,766 616,767 641,767 642,766 645,766 642,766 641,767 616,767 615,766 612,766 611,765 607,765 606,764 604,764 603,763 601,763 600,762 598,762 597,761 598,760 601,760 602,761 604,761 605,762 609,762 610,763 613,763 614,764 619,764 620,765 640,765 641,764 645,764 646,763 650,763 651,762 654,762 655,761 659,761 660,760 663,760 664,761 663,762 663,764 661,766 663,764 663,762 666,759 665,760 660,760 659,761 655,761 654,762 651,762 650,763 646,763 645,764 641,764 640,765 620,765 619,764 614,764 613,763 610,763 609,762 605,762 604,761 602,761 601,760 598,760 597,759 595,759 594,758 592,758 591,757 589,757 588,756 586,756 585,755 580,755" fill="none" stroke="black" stroke-width="0.5"/>
  <path d="M525,715 525,716 523,718 523,719 515,727 514,727 507,734 506,734 501,739 500,739 495,744 494,744 488,750 487,750 484,753 483,753 476,760 477,760 484,753 485,753 488,750 489,750 495,744 496,744 501,739 502,739 507,734 508,734 515,727 516,727 520,723 520,722 524,718 524,717 525,716" fill="none" stroke="black" stroke-width="0.5"/>
  <path d="M525,708 525,709 526,708 527,708 528,709 528,710 526,712 525,712 527,712 528,711 528,708" fill="none" stroke="black" stroke-width="0.5"/>
  <path d="M573,705 572,706 567,706 566,707 561,707 560,708 555,708 554,709 540,709 539,708 536,708 535,707 535,708 539,708 540,709 554,709 555,708 561,708 562,707 566,707 567,706 572,706 573,705 577,705 578,706 575,709 575,710 571,714 570,714 566,718 565,718 563,720 562,720 560,722 559,722 558,723 557,723 556,724 554,724 551,727 550,727 549,726 545,726 544,727 539,727 538,728 535,728 534,729 532,729 531,730 528,730 527,731 526,731 525,732 523,732 522,733 521,733 520,734 519,734 518,735 517,735 516,736 515,736 514,737 513,737 512,738 511,738 510,739 509,739 507,741 506,741 505,742 504,742 502,744 501,744 499,746 498,746 496,748 495,748 491,752 490,752 485,757 484,757 474,767 474,768 471,771 470,771 471,771 485,757 486,757 491,752 492,752 496,748 497,748 499,746 500,746 502,744 503,744 505,742 506,742 507,741 508,741 510,739 511,739 512,738 513,738 514,737 515,737 516,736 517,736 518,735 519,735 520,734 521,734 522,733 523,733 524,732 525,732 526,731 528,731 529,730 531,730 532,729 534,729 535,728 538,728 539,727 544,727 545,726 549,726 550,727 546,731 545,731 543,733 542,733 540,735 539,735 537,737 536,737 534,739 533,739 532,740 531,740 529,742 528,742 526,744 525,744 523,746 522,746 521,747 520,747 518,749 517,749 516,750 515,750 513,752 512,752 511,753 510,753 508,755 507,755 506,756 505,756 504,757 503,757 502,758 501,758 500,759 499,759 497,761 496,761 495,762 494,762 493,763 492,763 491,764 489,764 488,765 487,765 486,766 485,766 484,767 483,767 482,768 480,768 479,769 477,769 476,770 477,769 479,769 480,768 482,768 483,767 484,767 485,766 486,766 487,765 488,765 489,764 491,764 492,763 493,763 494,762 495,762 496,761 497,761 498,760 499,760 500,759 501,759 502,758 503,758 504,757 505,757 507,755 508,755 509,754 510,754 511,753 512,753 514,751 515,751 516,750 517,750 519,748 520,748 521,747 522,747 524,745 525,745 526,744 527,744 529,742 530,742 532,740 533,740 535,738 536,738 538,736 539,736 540,735 541,735 543,733 544,733 546,731 547,731 552,726 553,726 555,724 557,724 558,723 559,723 561,721 562,721 563,720 564,720 567,717 568,717 579,706 578,705" fill="none" stroke="black" stroke-width="0.5"/>
  <path d="M592,704 592,705 590,707 590,708 573,725 572,725 568,729 567,729 564,732 563,732 561,734 560,734 558,736 557,736 555,738 554,738 552,740 551,740 552,740 553,739 554,739 555,738 556,738 558,736 559,736 561,734 562,734 564,732 565,732 568,729 569,729 573,725 574,725 590,709 590,708 591,707 591,706 592,705" fill="none" stroke="black" stroke-width="0.5"/>
  <path d="M476,682 485,691 486,691 487,692 488,692 490,694 491,694 492,695 493,695 495,697 496,697 497,698 498,698 499,699 500,699 501,700 502,700 503,701 504,701 505,702 506,702 505,702 504,701 503,701 501,699 500,699 499,698 498,698 497,697 496,697 494,695 493,695 492,694 491,694 490,693 489,693 488,692 487,692 477,682" fill="none" stroke="black" stroke-width="0.5"/>
  <path d="M624,673 625,672 629,672 630,673 633,673 634,674 635,674 636,675 637,675 640,678 641,678 642,679 642,680 645,683 645,684 646,685 646,694 645,695 645,698 644,699 644,700 642,702 641,702 639,704 637,704 636,705 633,705 632,706 626,706 625,705 623,705 622,704 621,704 619,702 618,702 615,699 615,698 611,694 612,693 612,692 611,691 611,685 612,684 612,682 614,680 614,679 618,675 619,675 621,673" fill="none" stroke="black" stroke-width="0.5"/>
  <path d="M625,672 624,673 621,673 620,674 619,674 618,675 617,675 614,678 614,679 613,680 613,681 612,682 612,684 611,685 611,691 612,692 612,693 611,694 611,695 612,695 613,696 613,697 619,703 620,703 621,704 622,704 623,705 625,705 626,706 632,706 633,705 636,705 637,704 639,704 640,703 641,703 642,702 643,702 644,701 644,699 645,698 645,695 646,694 646,685 645,684 645,683 644,682 644,681 642,679 642,678 641,678 639,676 638,676 637,675 636,675 635,674 634,674 633,673 630,673 629,672" fill="none" stroke="black" stroke-width="0.5"/>
  <path d="M456,656 459,659 459,661 463,665 463,666 466,669 466,670 469,673 469,672 466,669 466,668 459,661 459,659" fill="none" stroke="black" stroke-width="0.5"/>
  <path d="M527,649 526,650 524,650 522,652 521,652 515,658 516,657 517,657 522,652 523,652 525,650 527,650 528,649 533,649 534,650 535,650 537,652 537,653 538,654 538,656 539,657 539,660 538,661 538,664 537,665 537,666 536,667 534,667 533,666 533,654 532,653 531,654 529,654 528,655 527,655 526,656 524,656 523,657 521,657 520,658 519,658 518,659 517,659 516,660 517,659 518,659 519,658 521,658 522,657 524,657 525,656 526,656 527,655 529,655 530,654 531,654 532,653 533,654 533,667 537,667 537,665 538,664 538,662 539,661 539,657 538,656 538,653 537,652 537,651 536,650 534,650 533,649" fill="none" stroke="black" stroke-width="0.5"/>
  <path d="M729,639 729,641 728,642 728,650 727,651 727,656 726,657 726,660 725,661 725,664 724,665 724,668 723,669 723,671 722,672 722,674 721,675 721,676 720,677 720,679 719,680 719,681 718,682 718,683 717,684 717,686 716,687 716,688 714,690 714,691 713,692 713,694 712,695 712,696 712,695 713,694 713,693 714,692 714,691 716,689 716,688 717,687 717,685 718,684 718,683 719,682 719,681 720,680 720,678 721,677 721,675 722,674 722,672 723,671 723,669 724,668 724,665 725,664 725,661 726,660 726,657 727,656 727,651 728,650 728,642 729,641" fill="none" stroke="black" stroke-width="0.5"/>
  <path d="M435,638 434,639 433,639 433,649 434,650 434,653 435,654 435,656 436,657 436,658 437,659 437,660 438,661 438,662 439,663 439,664 440,665 440,666 443,669 443,670 447,674 447,673 443,669 443,668 440,665 440,664 439,663 439,662 438,661 438,660 437,659 437,658 435,656 435,654 434,653 434,650 433,649 433,640 435,638 440,638 441,639 442,639 443,640 444,640 446,642 447,642 457,652 457,653 459,655 459,656 461,658 461,659 462,660 462,661 466,665 467,665 468,666 468,667 474,673 474,674 487,687 488,687 491,690 492,690 495,693 496,693 498,695 499,695 500,696 501,696 502,697 503,697 504,698 505,698 506,699 508,699 509,700 510,700 511,701 512,701 513,702 515,702 516,703 518,703 519,704 522,704 523,705 526,705 527,706 529,706 530,707 529,706 527,706 526,705 523,705 522,704 519,704 518,703 516,703 515,702 513,702 512,701 511,701 510,700 509,700 508,699 507,699 506,698 505,698 504,697 503,697 502,696 501,696 500,695 499,695 497,693 496,693 493,690 492,690 489,687 488,687 474,673 474,672 468,666 468,665 467,665 462,660 462,659 461,658 461,657 459,655 459,654 457,652 457,651 448,642 447,642 445,640 443,640 442,639 441,639 440,638" fill="none" stroke="black" stroke-width="0.5"/>
  <path d="M599,636 598,637 597,637 597,638 596,639 596,643 597,644 598,644 599,645 601,645 601,644 602,643 602,637 601,637 600,636" fill="none" stroke="black" stroke-width="0.5"/>
  <path d="M532,629 535,629 536,630 538,630 539,631 540,631 542,633 543,633 544,634 544,635 547,638 547,639 548,640 548,641 549,642 549,643 551,645 551,648 552,649 552,650 553,651 553,653 554,654 554,655 555,656 555,658 556,659 556,662 557,663 557,664 558,665 558,667 560,669 560,671 561,672 561,673 562,674 562,675 566,679 566,680 569,683 570,683 573,686 574,686 575,687 576,687 577,688 578,688 579,689 580,689 581,690 582,690 583,691 586,691 587,692 589,692 590,693 591,693 594,696 594,697 595,698 595,704 594,705 594,707 593,708 593,709 592,710 592,711 590,713 590,714 585,719 585,720 582,723 581,723 573,731 572,731 570,733 569,733 567,735 566,735 565,736 564,736 563,737 562,737 561,738 565,742 562,739 562,738 563,737 564,737 565,736 566,736 567,735 568,735 570,733 571,733 573,731 574,731 575,732 575,733 576,733 577,734 578,734 579,735 580,735 581,736 582,736 583,737 585,737 586,738 588,738 589,739 591,739 592,740 594,740 595,741 598,741 599,742 602,742 603,743 608,743 609,744 618,744 619,745 633,745 634,744 643,744 644,743 648,743 649,742 652,742 653,741 656,741 657,740 660,740 661,739 662,739 663,738 664,738 665,737 668,737 669,736 670,736 671,735 672,735 674,733 675,733 676,732 677,732 678,731 679,731 681,729 682,729 684,727 685,727 688,724 689,724 703,710 703,709 705,707 705,706 707,704 707,703 708,702 708,701 709,700 709,699 710,698 708,700 708,701 707,702 707,703 706,704 706,705 703,708 703,709 688,724 687,724 684,727 683,727 681,729 680,729 678,731 677,731 675,733 674,733 673,734 672,734 671,735 670,735 669,736 668,736 667,737 665,737 664,738 663,738 662,739 660,739 659,740 657,740 656,741 653,741 652,742 649,742 648,743 644,743 643,744 634,744 633,745 619,745 618,744 609,744 608,743 603,743 602,742 599,742 598,741 595,741 594,740 592,740 591,739 589,739 588,738 586,738 585,737 584,737 583,736 582,736 581,735 580,735 579,734 578,734 577,733 576,733 574,731 582,723 583,723 585,721 585,720 590,715 590,714 592,712 592,711 593,710 593,708 594,707 594,705 595,704 595,698 594,697 594,695 593,694 592,694 591,693 590,693 589,692 587,692 586,691 584,691 583,690 581,690 580,689 579,689 578,688 577,688 576,687 575,687 573,685 572,685 564,677 564,676 562,674 562,673 561,672 561,671 560,670 560,669 559,668 559,667 558,666 558,665 557,664 557,662 556,661 556,659 555,658 555,656 554,655 554,654 553,653 553,651 552,650 552,648 551,647 551,645 550,644 550,643 549,642 549,641 548,640 548,639 547,638 547,637 541,631 540,631 539,630 536,630 535,629" fill="none" stroke="black" stroke-width="0.5"/>
  <path d="M614,618 618,618 620,620 620,621 621,622 621,629 619,631 619,632 618,633 616,633 615,632 614,632 613,631 613,630 612,629 612,628 611,627 611,623 612,622 612,620" fill="none" stroke="black" stroke-width="0.5"/>
  <path d="M613,618 613,619 612,620 612,622 611,623 611,627 612,628 612,630 613,631 613,632 614,632 615,633 615,634 614,635 615,636 616,636 615,636 614,635 616,633 619,633 619,632 620,631 620,630 621,629 621,622 620,621 620,619 619,618" fill="none" stroke="black" stroke-width="0.5"/>
  <path d="M605,610 603,612 601,612 603,612 604,611 605,611 606,610 612,610 613,611 614,611 616,613 617,613 622,618 622,619 623,620 623,622 624,623 624,637 623,638 623,643 622,644 622,647 621,648 621,649 620,650 620,651 619,652 619,653 617,655 617,656 613,660 612,660 610,662 609,662 608,663 607,663 606,664 603,664 602,663 601,663 600,662 599,662 595,658 595,657 593,655 593,654 592,653 592,651 591,650 591,647 590,646 591,645 591,634 592,633 592,630 593,629 593,626 594,625 594,624 595,623 595,622 596,621 596,620 597,619 597,618 599,616 599,613 599,615 597,617 597,618 596,619 596,620 595,621 595,623 594,624 594,625 593,626 593,629 592,630 592,633 591,634 591,645 590,646 591,647 591,650 592,651 592,654 593,655 593,656 595,658 595,659 598,662 600,662 601,663 602,663 603,664 606,664 607,665 607,664 609,662 611,662 613,660 614,660 615,659 615,658 618,655 618,654 620,652 620,650 621,649 621,648 622,647 622,644 623,643 623,638 624,637 624,623 623,622 623,620 622,619 622,618 621,617 621,616 618,613 617,613 616,612 615,612 613,610" fill="none" stroke="black" stroke-width="0.5"/>
  <path d="M614,602 613,603 610,603 609,604 607,604 606,605 605,605 600,610 601,609 602,609 606,605 607,605 608,604 609,604 610,603 613,603 614,602 616,602 617,603 620,603 621,604 623,604 624,605 624,606 625,606 627,608 627,609 629,611 629,612 630,613 630,614 631,615 631,619 632,620 632,631 631,632 631,640 630,641 630,644 629,645 629,647 628,648 628,649 627,650 627,651 626,652 626,653 625,654 625,655 622,658 622,659 619,662 618,662 616,664 614,664 613,665 610,665 614,665 615,664 616,664 617,663 618,663 624,657 624,656 626,654 626,652 627,651 627,650 628,649 628,648 629,647 629,645 630,644 630,641 631,640 631,632 632,631 632,620 631,619 631,615 630,614 630,612 629,611 629,610 627,608 627,607 626,607 625,606 626,605 626,604 625,604 624,605 623,604 621,604 620,603 617,603 616,602" fill="none" stroke="black" stroke-width="0.5"/>
  <path d="M633,582 634,581 636,581 637,582 639,582 640,583 641,583 642,584 643,584 644,585 645,585 650,590 650,591 652,593 652,594 653,595 653,596 654,597 654,598 655,599 655,603 656,604 656,609 655,610 653,608 653,607 651,605 651,603 650,602 650,600 649,599 649,598 648,597 648,596 642,590 641,590 639,588 638,588 637,587 635,587 633,585" fill="none" stroke="black" stroke-width="0.5"/>
  <path d="M633,581 633,586 634,587 636,587 637,588 638,588 640,590 641,590 648,597 648,598 649,599 649,600 650,601 650,602 651,603 651,605 652,606 652,607 653,608 653,609 654,609 655,610 656,609 656,604 655,603 655,599 654,598 654,597 653,596 653,594 652,593 652,592 650,590 650,589 646,585 645,585 644,584 643,584 642,583 641,583 640,582 637,582 636,581" fill="none" stroke="black" stroke-width="0.5"/>
  <path d="M601,544 603,546 601,548 600,548 599,547 600,548 601,548 602,547 603,547 603,545 602,545" fill="none" stroke="black" stroke-width="0.5"/>
  <path d="M662,540 662,544 661,545 662,546 664,546 668,542 667,542 663,546 662,546 661,545 662,544" fill="none" stroke="black" stroke-width="0.5"/>
  <path d="M623,534 626,537 626,538 627,539 627,540 629,540 629,534 629,539 628,540 626,538 626,537 625,536 625,535 624,535" fill="none" stroke="black" stroke-width="0.5"/>
  <path d="M647,528 647,530 646,531 646,541 648,541 648,540 649,539 650,539 650,538 649,537 649,536 651,534 651,533 649,535 649,536 648,537 648,540 647,541 646,540 646,531 647,530" fill="none" stroke="black" stroke-width="0.5"/>
</svg>
